<svg width="1134" height="756" xmlns="http://www.w3.org/2000/svg" xmlns:xlink="http://www.w3.org/1999/xlink" overflow="hidden"><g><rect x="0" y="0" width="1134" height="755.889" fill="#FFFFFF"/><path d="M105.5 353.948C105.5 214.517 218.548 101.485 358 101.485 497.452 101.485 610.5 214.517 610.5 353.948 610.5 493.379 497.452 606.411 358 606.411 218.548 606.411 105.5 493.379 105.5 353.948Z" stroke="#000000" stroke-width="1.33353" stroke-miterlimit="8" fill="none" fill-rule="evenodd"/><path d="M147.5 270.46 305.775 145.479 579.5 145.479 421.225 270.46Z" stroke="#000000" stroke-width="2.66706" stroke-miterlimit="8" fill="none" fill-rule="evenodd"/><path d="M147.5 548.419 305.775 423.438 579.5 423.438 421.225 548.419Z" stroke="#000000" stroke-width="2.66706" stroke-miterlimit="8" fill="none" fill-rule="evenodd"/><path d="M306.5 145.479 306.5 423.592" stroke="#000000" stroke-width="2.66706" stroke-miterlimit="8" fill="none" fill-rule="evenodd"/><path d="M582.5 144.479 582.5 422.592" stroke="#000000" stroke-width="2.66706" stroke-miterlimit="8" fill="none" fill-rule="evenodd"/><path d="M0.922298-1.18295 545.465 423.376 543.62 425.742-0.922298 1.18295ZM546.128 420.089 550.459 429.171 540.594 427.186Z" fill="#0000FF" transform="matrix(1.00015 0 0 -1 66.5 577.65)"/><path d="M9.49998 351.948 690.739 351.948 690.739 354.948 9.49998 354.948ZM689.239 348.948 698.24 353.448 689.239 357.948Z" fill="#FF0000"/><path d="M358 15.4977 358 693.472 355 693.472 355 15.4977ZM361.001 691.971 356.5 700.971 351.999 691.971Z" fill="#548235"/><path d="M97.5 353.448C97.5 348.478 101.529 344.449 106.5 344.449 111.471 344.449 115.5 348.478 115.5 353.448 115.5 358.418 111.471 362.447 106.5 362.447 101.529 362.447 97.5 358.418 97.5 353.448Z" stroke="#000000" stroke-width="1.33353" stroke-miterlimit="8" fill="#A6A6A6" fill-rule="evenodd"/><path d="M600.5 353.448C600.5 348.478 604.753 344.449 610 344.449 615.247 344.449 619.5 348.478 619.5 353.448 619.5 358.418 615.247 362.447 610 362.447 604.753 362.447 600.5 358.418 600.5 353.448Z" stroke="#000000" stroke-width="1.33353" stroke-miterlimit="8" fill="#A6A6A6" fill-rule="evenodd"/><text font-family="Cambria Math,Cambria Math_MSFontService,sans-serif" font-weight="400" font-size="32" transform="matrix(1 0 0 0.999853 672.148 392)">ğ‘‹</text><text font-family="Cambria Math,Cambria Math_MSFontService,sans-serif" font-weight="400" font-size="23" transform="matrix(1 0 0 0.999853 691.411 399)">ğ‘€</text><text font-family="Cambria Math,Cambria Math_MSFontService,sans-serif" font-weight="400" font-size="32" transform="matrix(1 0 0 0.999853 630.691 178)">ğ‘</text><text font-family="Cambria Math,Cambria Math_MSFontService,sans-serif" font-weight="400" font-size="23" transform="matrix(1 0 0 0.999853 648.754 185)">ğ‘€</text><text font-family="Cambria Math,Cambria Math_MSFontService,sans-serif" font-weight="400" font-size="32" transform="matrix(1 0 0 0.999853 371.998 708)">ğ‘Œ</text><text font-family="Cambria Math,Cambria Math_MSFontService,sans-serif" font-weight="400" font-size="23" transform="matrix(1 0 0 0.999853 386.086 714)">ğ‘€</text><path d="M346.5 605.411C346.5 600.441 350.753 596.412 356 596.412 361.247 596.412 365.5 600.441 365.5 605.411 365.5 610.381 361.247 614.41 356 614.41 350.753 614.41 346.5 610.381 346.5 605.411Z" stroke="#000000" stroke-width="1.33353" stroke-miterlimit="8" fill="#A6A6A6" fill-rule="evenodd"/><path d="M346.5 100.985C346.5 95.7392 350.753 91.4865 356 91.4865 361.247 91.4865 365.5 95.7392 365.5 100.985 365.5 106.231 361.247 110.484 356 110.484 350.753 110.484 346.5 106.231 346.5 100.985Z" stroke="#000000" stroke-width="1.33353" stroke-miterlimit="8" fill="#A6A6A6" fill-rule="evenodd"/><text font-family="Times New Roman,Times New Roman_MSFontService,sans-serif" font-weight="400" font-size="32" transform="matrix(1 0 0 0.999853 369.857 82)">top</text><text font-family="Times New Roman,Times New Roman_MSFontService,sans-serif" font-weight="400" font-size="32" transform="matrix(1 0 0 0.999853 256.102 643)">bottom</text><text font-family="Times New Roman,Times New Roman_MSFontService,sans-serif" font-weight="400" font-size="32" transform="matrix(1 0 0 0.999853 619.655 332)">right</text><text font-family="Times New Roman,Times New Roman_MSFontService,sans-serif" font-weight="400" font-size="32" transform="matrix(1 0 0 0.999853 49.8233 389)">left</text><text font-family="Times New Roman,Times New Roman_MSFontService,sans-serif" font-weight="400" font-size="32" transform="matrix(1 0 0 0.999853 578.083 118)">FRT</text><text font-family="Times New Roman,Times New Roman_MSFontService,sans-serif" font-weight="400" font-size="32" transform="matrix(1 0 0 0.999853 239.326 156)">FLT</text><text font-family="Times New Roman,Times New Roman_MSFontService,sans-serif" font-weight="400" font-size="32" transform="matrix(1 0 0 0.999853 388.912 584)">BRB</text><text font-family="Times New Roman,Times New Roman_MSFontService,sans-serif" font-weight="400" font-size="32" transform="matrix(1 0 0 0.999853 113.92 596)">BLB</text><text font-family="Times New Roman,Times New Roman_MSFontService,sans-serif" font-weight="400" font-size="32" transform="matrix(1 0 0 0.999853 292.458 462)">FLB</text><text font-family="Times New Roman,Times New Roman_MSFontService,sans-serif" font-weight="400" font-size="32" transform="matrix(1 0 0 0.999853 507.112 409)">FRB</text><text font-family="Times New Roman,Times New Roman_MSFontService,sans-serif" font-weight="400" font-size="32" transform="matrix(1 0 0 0.999853 65.9095 260)">BLT</text><text font-family="Times New Roman,Times New Roman_MSFontService,sans-serif" font-weight="400" font-size="32" transform="matrix(1 0 0 0.999853 362.727 256)">BRT</text><path d="M490.5 238.965C490.5 233.719 494.529 229.466 499.5 229.466 504.471 229.466 508.5 233.719 508.5 238.965 508.5 244.211 504.471 248.464 499.5 248.464 494.529 248.464 490.5 244.211 490.5 238.965Z" stroke="#000000" stroke-width="1.33353" stroke-miterlimit="8" fill="#A6A6A6" fill-rule="evenodd"/><text font-family="Times New Roman,Times New Roman_MSFontService,sans-serif" font-weight="400" font-size="32" transform="matrix(1 0 0 0.999853 492.571 298)">front</text><path d="M0 0C6.26885 0 12.5377 4 12.5377 8 12.5377 12 18.8065 16 25.0754 16" stroke="#000000" stroke-width="1.33333" stroke-miterlimit="8" fill="none" fill-rule="evenodd" transform="matrix(1.83724e-16 1 1.00015 -1.83697e-16 507.5 244.464)"/><path d="M194.5 468.931C194.5 463.685 198.753 459.432 204 459.432 209.247 459.432 213.5 463.685 213.5 468.931 213.5 474.177 209.247 478.43 204 478.43 198.753 478.43 194.5 474.177 194.5 468.931Z" stroke="#000000" stroke-width="1.33353" stroke-miterlimit="8" fill="#A6A6A6" fill-rule="evenodd"/><text font-family="Times New Roman,Times New Roman_MSFontService,sans-serif" font-weight="400" font-size="32" transform="matrix(1 0 0 0.999853 153.541 418)">back</text><path d="M0 0C8.4321 0 16.8642 3.95926 16.8642 7.91848 16.8642 11.8777 25.2963 15.837 33.7284 15.837" stroke="#000000" stroke-width="1.33333" stroke-miterlimit="8" fill="none" fill-rule="evenodd" transform="matrix(1.83724e-16 1 1.00015 -1.83697e-16 184.5 426.437)"/><path d="M145.5 270.46 145.5 548.573" stroke="#000000" stroke-width="2.66706" stroke-miterlimit="8" fill="none" fill-rule="evenodd"/><path d="M421.5 270.46 421.5 548.573" stroke="#000000" stroke-width="2.66706" stroke-miterlimit="8" fill="none" fill-rule="evenodd"/><path d="M572.5 144.479C572.5 139.509 576.753 135.48 582 135.48 587.247 135.48 591.5 139.509 591.5 144.479 591.5 149.449 587.247 153.477 582 153.477 576.753 153.477 572.5 149.449 572.5 144.479Z" stroke="#000000" stroke-width="1.33353" stroke-miterlimit="8" fill="#FFC000" fill-rule="evenodd"/><path d="M296.5 144.479C296.5 139.509 300.529 135.48 305.5 135.48 310.471 135.48 314.5 139.509 314.5 144.479 314.5 149.449 310.471 153.477 305.5 153.477 300.529 153.477 296.5 149.449 296.5 144.479Z" stroke="#000000" stroke-width="1.33353" stroke-miterlimit="8" fill="#FFC000" fill-rule="evenodd"/><path d="M412.5 269.46C412.5 264.491 416.753 260.462 422 260.462 427.247 260.462 431.5 264.491 431.5 269.46 431.5 274.43 427.247 278.459 422 278.459 416.753 278.459 412.5 274.43 412.5 269.46Z" stroke="#000000" stroke-width="1.33353" stroke-miterlimit="8" fill="#FFC000" fill-rule="evenodd"/><path d="M136.5 269.46C136.5 264.491 140.753 260.462 146 260.462 151.247 260.462 155.5 264.491 155.5 269.46 155.5 274.43 151.247 278.459 146 278.459 140.753 278.459 136.5 274.43 136.5 269.46Z" stroke="#000000" stroke-width="1.33353" stroke-miterlimit="8" fill="#FFC000" fill-rule="evenodd"/><path d="M572.5 423.938C572.5 418.692 576.753 414.439 582 414.439 587.247 414.439 591.5 418.692 591.5 423.938 591.5 429.184 587.247 433.436 582 433.436 576.753 433.436 572.5 429.184 572.5 423.938Z" stroke="#000000" stroke-width="1.33353" stroke-miterlimit="8" fill="#FFC000" fill-rule="evenodd"/><path d="M296.5 423.938C296.5 418.692 300.529 414.439 305.5 414.439 310.471 414.439 314.5 418.692 314.5 423.938 314.5 429.184 310.471 433.436 305.5 433.436 300.529 433.436 296.5 429.184 296.5 423.938Z" stroke="#000000" stroke-width="1.33353" stroke-miterlimit="8" fill="#FFC000" fill-rule="evenodd"/><path d="M412.5 548.919C412.5 543.673 416.753 539.421 422 539.421 427.247 539.421 431.5 543.673 431.5 548.919 431.5 554.165 427.247 558.418 422 558.418 416.753 558.418 412.5 554.165 412.5 548.919Z" stroke="#000000" stroke-width="1.33353" stroke-miterlimit="8" fill="#FFC000" fill-rule="evenodd"/><path d="M136.5 548.919C136.5 543.673 140.753 539.421 146 539.421 151.247 539.421 155.5 543.673 155.5 548.919 155.5 554.165 151.247 558.418 146 558.418 140.753 558.418 136.5 554.165 136.5 548.919Z" stroke="#000000" stroke-width="1.33353" stroke-miterlimit="8" fill="#FFC000" fill-rule="evenodd"/><text font-family="Times New Roman,Times New Roman_MSFontService,sans-serif" font-weight="400" font-size="32" transform="matrix(1 0 0 0.999853 518.453 600)">Unit sphere</text><path d="M523.5 545.42C530.64 545.42 537.781 550.658 537.781 555.897 537.781 561.135 544.921 566.373 552.061 566.373" stroke="#000000" stroke-width="1.33353" stroke-miterlimit="8" fill="none" fill-rule="evenodd"/><text font-family="Cambria Math,Cambria Math_MSFontService,sans-serif" font-weight="400" font-size="32" transform="matrix(1 0 0 0.999853 310.585 336)">ğ‘‚</text><text font-family="Cambria Math,Cambria Math_MSFontService,sans-serif" font-weight="400" font-size="23" transform="matrix(1 0 0 0.999853 330.848 343)">ğ‘€</text><path d="M736 167.643C736 155.126 746.149 144.979 758.667 144.979L1101.33 144.979C1113.85 144.979 1124 155.126 1124 167.643L1124 258.295C1124 270.812 1113.85 280.959 1101.33 280.959L758.667 280.959C746.149 280.959 736 270.812 736 258.295Z" stroke="#000000" stroke-width="1.66691" stroke-miterlimit="8" fill="none" fill-rule="evenodd"/><path d="M757.5 184.973C757.5 179.727 761.753 175.474 767 175.474 772.247 175.474 776.5 179.727 776.5 184.973 776.5 190.219 772.247 194.471 767 194.471 761.753 194.471 757.5 190.219 757.5 184.973Z" stroke="#000000" stroke-width="1.33353" stroke-miterlimit="8" fill="#A6A6A6" fill-rule="evenodd"/><text font-family="Times New Roman,Times New Roman_MSFontService,sans-serif" font-weight="400" font-size="32" transform="matrix(1 0 0 0.999853 792.831 196)">Vanishing point</text><path d="M757.5 241.964C757.5 236.718 761.753 232.466 767 232.466 772.247 232.466 776.5 236.718 776.5 241.964 776.5 247.21 772.247 251.463 767 251.463 761.753 251.463 757.5 247.21 757.5 241.964Z" stroke="#000000" stroke-width="1.33353" stroke-miterlimit="8" fill="#FFC000" fill-rule="evenodd"/><text font-family="Times New Roman,Times New Roman_MSFontService,sans-serif" font-weight="400" font-size="32" transform="matrix(1 0 0 0.999853 792.831 253)">Auxiliary diagonal point</text><text font-family="Times New Roman,Times New Roman_MSFontService,sans-serif" font-weight="700" font-size="48" transform="matrix(1 0 0 0.999853 889.782 738)">2024 IEEE</text><path d="M838.5 721.894C838.5 711.126 847.007 702.397 857.5 702.397 867.993 702.397 876.5 711.126 876.5 721.894 876.5 732.662 867.993 741.391 857.5 741.391 847.007 741.391 838.5 732.662 838.5 721.894Z" stroke="#000000" stroke-width="1.33353" stroke-miterlimit="8" fill="none" fill-rule="evenodd"/><text font-family="Times New Roman,Times New Roman_MSFontService,sans-serif" font-weight="400" font-size="48" transform="matrix(1 0 0 0.999853 846.33 733)">c</text></g></svg>